# xmcd CD database file
#
# Track frame offsets:
#	150
#	21045
#	40812
#	58887
#	77207
#	99372
#	118152
#	140955
#	161097
#	184155
#	202325
#	223747
#
# Disc length: 3183 seconds
#
# Revision: 0
# Processed by: cddbd v1.5.2PL0 Copyright (c) Steve Scherf et al.
# Submitted via: CDex 1.70beta2
#
DISCID=ba0c6d0c
DTITLE=Various Artist - Cafè Privè
DYEAR=2006
DGENRE=New Age
TTITLE0=01-Closer
TTITLE1=02-Another Night
TTITLE2=03-Ganesh
TTITLE3=04-Valentina
TTITLE4=05-No Doubt
TTITLE5=06-Cool Chant
TTITLE6=07-Belo Horizonte
TTITLE7=08-Blue Waves
TTITLE8=09-Au Paradis Des Enfants
TTITLE9=10-All Over The World
TTITLE10=11-Tendenze Analogiche
TTITLE11=12-Manipur
EXTD=YEAR: 2006
EXTT0=
EXTT1=
EXTT2=
EXTT3=
EXTT4=
EXTT5=
EXTT6=
EXTT7=
EXTT8=
EXTT9=
EXTT10=
EXTT11=
PLAYORDER=
